<svg width="22" height="22" viewBox="0 0 22 22" fill="none" xmlns="http://www.w3.org/2000/svg">
<path d="M15.2426 8.87868C15.8284 8.29289 15.8284 7.34315 15.2426 6.75736C14.6569 6.17157 13.7071 6.17157 13.1213 6.75736L15.2426 8.87868ZM6.75736 13.1213C6.17157 13.7071 6.17157 14.6569 6.75736 15.2426C7.34315 15.8284 8.29289 15.8284 8.87868 15.2426L6.75736 13.1213ZM13.1213 15.2426C13.7071 15.8284 14.6569 15.8284 15.2426 15.2426C15.8284 14.6569 15.8284 13.7071 15.2426 13.1213L13.1213 15.2426ZM8.87868 6.75736C8.29289 6.17157 7.34315 6.17157 6.75736 6.75736C6.17157 7.34315 6.17157 8.29289 6.75736 8.87868L8.87868 6.75736ZM18.5 11C18.5 15.1421 15.1421 18.5 11 18.5V21.5C16.799 21.5 21.5 16.799 21.5 11H18.5ZM11 18.5C6.85786 18.5 3.5 15.1421 3.5 11H0.5C0.5 16.799 5.20101 21.5 11 21.5V18.5ZM3.5 11C3.5 6.85786 6.85786 3.5 11 3.5V0.5C5.20101 0.5 0.5 5.20101 0.5 11H3.5ZM11 3.5C15.1421 3.5 18.5 6.85786 18.5 11H21.5C21.5 5.20101 16.799 0.5 11 0.5V3.5ZM13.1213 6.75736L9.93934 9.93934L12.0607 12.0607L15.2426 8.87868L13.1213 6.75736ZM9.93934 9.93934L6.75736 13.1213L8.87868 15.2426L12.0607 12.0607L9.93934 9.93934ZM15.2426 13.1213L12.0607 9.93934L9.93934 12.0607L13.1213 15.2426L15.2426 13.1213ZM12.0607 9.93934L8.87868 6.75736L6.75736 8.87868L9.93934 12.0607L12.0607 9.93934Z" fill="#808080"/>
</svg>
